<svg viewBox="0 0 24 24" fill="none" xmlns="http://www.w3.org/2000/svg">
  <path fill-rule="evenodd" clip-rule="evenodd" d="M20.6808 8.46918L20.0518 6.79455L20.4888 5.83255C20.5449 5.70872 20.5179 5.56338 20.4207 5.46728L19.2318 4.28781C18.7119 3.7724 17.9362 3.59521 17.2375 3.83289L16.9051 3.94588L15.1687 2H12.6142H10.9953H8.78376L7.06953 3.96944L6.74632 3.8579C6.04121 3.6146 5.25615 3.79369 4.73281 4.31722L3.5229 5.51879C3.44526 5.59572 3.424 5.71122 3.46908 5.80985L3.9256 6.80832L3.2998 8.48213L3.7049 9.99121L5.5498 16.8697C5.76221 17.6628 6.25172 18.3573 6.9326 18.8329C6.9326 18.8329 9.17259 20.382 11.383 21.7889C11.5773 21.9127 11.7806 22.0032 11.9988 21.9999C12.217 22.0028 12.4203 21.9127 12.6142 21.7883C15.0968 20.1927 17.061 18.8266 17.061 18.8266C17.7412 18.3502 18.2299 17.6549 18.4414 16.8615L20.2776 9.98038L20.6808 8.46918Z" fill="url(#paint0_linear_101_14119)" />
  <path fill-rule="evenodd" clip-rule="evenodd" d="M18.7179 8.80134L18.6892 8.891L18.6434 9.05178C18.5211 9.20107 18.2634 9.48758 18.0705 9.68882L16.2969 11.5372C16.104 11.7382 15.9951 11.9904 16.1053 12.2444L16.3444 12.8224C16.4543 13.0762 16.4652 13.4961 16.3598 13.7781C16.2526 14.065 16.0682 14.3186 15.8265 14.5119L15.6415 14.6598C15.4232 14.8343 15.0364 14.8802 14.7819 14.7615L13.965 14.3815C13.7107 14.2633 13.3313 14.0154 13.1217 13.8306L12.3489 13.1496C12.1981 13.0165 12.1896 12.788 12.3299 12.6449L14.212 11.4C14.4455 11.2457 14.569 10.9602 14.4364 10.7168L13.7672 9.52324C13.6345 9.27968 13.5815 8.95628 13.6492 8.80424C13.7171 8.65224 13.988 8.44787 14.2517 8.35006L16.4365 7.55432C16.6999 7.45654 16.6859 7.3556 16.4054 7.32974L15.0093 7.22798C14.7286 7.20211 14.523 7.24216 14.2517 7.31638L13.195 7.57266C12.9237 7.64692 12.8664 7.92989 12.9172 8.20096L13.3532 10.5181C13.4043 10.7894 13.4292 11.0626 13.4087 11.1254C13.3883 11.1882 13.1468 11.2893 12.8721 11.3504L12.5107 11.4307C12.236 11.4917 11.7858 11.4945 11.5104 11.4371L11.0732 11.3458C10.7977 11.2882 10.5555 11.1898 10.5348 11.1273C10.5144 11.0645 10.5391 10.7909 10.59 10.5198L11.0232 8.20222C11.0741 7.93093 11.0163 7.64837 10.7449 7.57434L9.68789 7.31932C9.41657 7.24529 9.21071 7.20609 8.93023 7.23192L7.53418 7.33495C7.2537 7.361 7.23985 7.46194 7.50329 7.55934L9.68938 8.35277C9.95282 8.45036 10.2241 8.65432 10.2921 8.80633C10.3602 8.95814 10.3074 9.28157 10.1752 9.52513L9.50727 10.7192C9.37499 10.9627 9.49878 11.2482 9.73241 11.4023L11.6163 12.6453C11.7568 12.7882 11.7485 13.0169 11.5979 13.15L10.8258 13.8321C10.6166 14.0171 10.2373 14.2652 9.98308 14.3841L9.16679 14.765C8.91251 14.8837 8.52554 14.8384 8.30725 14.6643L8.1222 14.5167C7.88005 14.3236 7.69519 14.0702 7.57914 13.7605C7.48204 13.5013 7.49227 13.0818 7.60173 12.8276L7.84049 12.2496C7.95018 11.9954 7.84086 11.7432 7.6477 11.5424L5.87205 9.69612C5.67911 9.49532 5.421 9.209 5.29873 9.06012L5.25255 8.89911L5.22377 8.80945C5.22102 8.70624 5.25872 8.37719 5.30153 8.28813C5.34433 8.19951 5.50831 7.93968 5.66609 7.71116L6.04602 7.16043C6.20382 6.93187 6.47664 6.56839 6.65213 6.35259L7.209 5.66862C7.38449 5.45297 7.53422 5.27741 7.55677 5.27886C7.55785 5.27741 7.78507 5.31891 8.06172 5.37083L8.90525 5.52949C9.1819 5.58145 9.48706 5.63858 9.58353 5.6563C9.67982 5.67424 9.97794 5.61919 10.2461 5.53411L10.8528 5.34161C11.1207 5.25634 11.5274 5.14416 11.7564 5.09202L11.9685 5.09515L12.1806 5.0918C12.4095 5.14353 12.8163 5.2553 13.0844 5.34016L13.6916 5.53202C13.9597 5.61688 14.2579 5.67152 14.3541 5.65358C14.4369 5.63817 14.6735 5.59343 14.9138 5.54795L15.0322 5.52555L15.8755 5.36625C16.1522 5.31388 16.3794 5.2722 16.3956 5.27343C16.403 5.2722 16.5527 5.44713 16.7286 5.66296L17.2864 6.3463C17.4623 6.56172 17.7353 6.92479 17.8935 7.15332L18.2741 7.70341C18.4321 7.93175 18.679 8.34738 18.6943 8.44184C18.71 8.5363 18.7205 8.69809 18.7179 8.80134ZM12.0835 14.3172C12.1082 14.3172 12.3416 14.4033 12.6019 14.5091L12.8434 14.6071C13.1036 14.7126 13.5223 14.9011 13.7734 15.026L14.486 15.3805C14.7371 15.5052 14.7551 15.7388 14.526 15.8993L13.9182 16.3252C13.689 16.4857 13.3287 16.7643 13.1177 16.9449C13.0599 16.9943 12.9921 17.0523 12.9198 17.114C12.7278 17.2781 12.5041 17.4694 12.3512 17.6001C12.1408 17.78 11.7999 17.7809 11.5935 17.6024C11.3869 17.4237 11.0451 17.1311 10.8336 16.9524C10.6224 16.7735 10.2612 16.497 10.031 16.3381L9.42535 15.9189C9.19511 15.7596 9.21153 15.525 9.46134 15.3976L10.1777 15.0323C10.4275 14.9047 10.8447 14.7136 11.105 14.6081L11.3465 14.5097C11.6065 14.404 11.8397 14.3172 11.8646 14.3172H11.9741H12.0835Z" fill="url(#paint1_linear_101_14119)" />
  <defs>
    <linearGradient id="paint0_linear_101_14119" x1="3.2998" y1="22.1411" x2="20.6808" y2="22.1411" gradientUnits="userSpaceOnUse">
      <stop stop-color="#FF5500" />
      <stop offset="0.409877" stop-color="#FF5500" />
      <stop offset="0.49434" stop-color="#FF4530" />
      <stop offset="0.572365" stop-color="#FF2000" />
      <stop offset="1" stop-color="#FF2000" />
    </linearGradient>
    <linearGradient id="paint1_linear_101_14119" x1="11.971" y1="20.6922" x2="18.2821" y2="20.6922" gradientUnits="userSpaceOnUse">
      <stop stop-color="white" />
      <stop offset="1" stop-color="#F4F4F4" />
    </linearGradient>
  </defs>
</svg>