<svg viewBox="0 0 20 20" fill="none" xmlns="http://www.w3.org/2000/svg">
    <path d="M19.0041 0.61084L11.2002 6.43117L12.6433 2.99725L19.0041 0.61084Z" fill="#E2761B" />
    <path d="M0.98808 0.61084L8.72926 6.4863L7.35671 2.99725L0.98808 0.61084ZM16.1959 14.1024L14.1175 17.3L18.5646 18.5286L19.843 14.1732L16.1959 14.1024ZM0.164551 14.1732L1.43514 18.5286L5.8822 17.3L3.80377 14.1024L0.164551 14.1732Z" fill="#E4761B" />
    <path d="M5.6313 8.69933L4.39209 10.5817L8.80778 10.7786L8.65091 6.01363L5.6313 8.69933ZM14.3607 8.69933L11.3019 5.9585L11.1999 10.7786L15.6078 10.5817L14.3607 8.69933ZM5.88229 17.2999L8.53327 16.0003L6.24307 14.2046L5.88229 17.2999ZM11.4588 16.0003L14.1176 17.2999L13.749 14.2046L11.4588 16.0003Z" fill="#E4761B" />
    <path d="M14.1176 17.3L11.4588 16.0005L11.6706 17.7411L11.647 18.4735L14.1176 17.3ZM5.88232 17.3L8.35291 18.4735L8.33723 17.7411L8.5333 16.0005L5.88232 17.3Z" fill="#D7C1B3" />
    <path d="M8.39194 13.055L6.18018 12.4013L7.74096 11.6846L8.39194 13.055ZM11.5998 13.055L12.2508 11.6846L13.8194 12.4013L11.5998 13.055Z" fill="#233447" />
    <path d="M5.88214 17.3002L6.25861 14.1026L3.80371 14.1735L5.88214 17.3002ZM13.741 14.1026L14.1174 17.3002L16.1959 14.1735L13.741 14.1026ZM15.6076 10.582L11.1998 10.7789L11.6076 13.0551L12.2586 11.6847L13.8272 12.4014L15.6076 10.582ZM6.18018 12.4014L7.74881 11.6847L8.39195 13.0551L8.80763 10.7789L4.39195 10.582L6.18018 12.4014Z" fill="#CD6116" />
    <path d="M4.39209 10.582L6.24307 14.205L6.18032 12.4014L4.39209 10.582ZM13.8274 12.4014L13.749 14.205L15.6078 10.582L13.8274 12.4014ZM8.80778 10.7789L8.39209 13.0551L8.90974 15.7408L9.02738 12.2045L8.80778 10.7789ZM11.1999 10.7789L10.9882 12.1966L11.0823 15.7408L11.6078 13.0551L11.1999 10.7789Z" fill="#E4751F" />
    <path d="M11.6076 13.0551L11.0821 15.7408L11.4586 16.0007L13.7488 14.205L13.8272 12.4014L11.6076 13.0551ZM6.18018 12.4014L6.24292 14.205L8.53312 16.0007L8.90959 15.7408L8.39194 13.0551L6.18018 12.4014Z" fill="#F6851B" />
    <path d="M11.647 18.4733L11.6706 17.7409L11.4745 17.5676H8.51762L8.33723 17.7409L8.35291 18.4733L5.88232 17.2998L6.74507 18.0086L8.49409 19.2294H11.498L13.2549 18.0086L14.1176 17.2998L11.647 18.4733Z" fill="#C0AD9E" />
    <path d="M11.459 16.0006L11.0825 15.7407H8.90995L8.53348 16.0006L8.3374 17.7412L8.51779 17.5679H11.4747L11.6707 17.7412L11.459 16.0006Z" fill="#161616" />
    <path d="M19.3333 6.80922L20 3.59583L19.0039 0.61084L11.4588 6.23427L14.3608 8.69945L18.4627 9.90447L19.3725 8.84121L18.9804 8.55768L19.6078 7.98273L19.1216 7.60469L19.749 7.12425L19.3333 6.80922ZM0 3.59583L0.666667 6.80922L0.243137 7.12425L0.870588 7.60469L0.392157 7.98273L1.01961 8.55768L0.627451 8.84121L1.52941 9.90447L5.63137 8.69945L8.53333 6.23427L0.988236 0.61084L0 3.59583Z" fill="#763D16" />
    <path d="M18.4626 9.90428L14.3606 8.69926L15.6077 10.5816L13.7489 14.2046L16.1959 14.173H19.843L18.4626 9.90428ZM5.63122 8.69926L1.52926 9.90428L0.164551 14.173H3.80377L6.24298 14.2046L4.392 10.5816L5.63122 8.69926ZM11.1998 10.7785L11.4587 6.23409L12.6508 2.99707H7.35671L8.53318 6.23409L8.80769 10.7785L8.90181 12.2119L8.90965 15.7404H11.0822L11.0979 12.2119L11.1998 10.7785Z" fill="#F6851B" />
</svg>