<svg viewBox="0 0 15 10" fill="none" id="walletConnect" xmlns="http://www.w3.org/2000/svg">
    <g clip-path="url(#clip0_105_1192)">
        <path d="M3.07214 1.83725C5.51782 -0.589631 9.48305 -0.589631 11.9287 1.83725L12.2231 2.12933C12.3454 2.25068 12.3454 2.44741 12.2231 2.56876L11.2162 3.5679C11.155 3.62858 11.0559 3.62858 10.9948 3.5679L10.5897 3.16597C8.88356 1.47291 6.11731 1.47291 4.41115 3.16597L3.97737 3.59641C3.91623 3.65708 3.8171 3.65708 3.75596 3.59641L2.74907 2.59726C2.62679 2.47592 2.62679 2.27918 2.74907 2.15784L3.07214 1.83725ZM14.0111 3.90359L14.9072 4.79283C15.0295 4.91418 15.0295 5.11091 14.9072 5.23226L10.8665 9.24197C10.7442 9.36332 10.5459 9.36332 10.4237 9.24197C10.4237 9.24197 10.4237 9.24197 10.4237 9.24197L7.55581 6.39616C7.52524 6.36583 7.47567 6.36583 7.4451 6.39616L7.4451 6.39616L4.57732 9.24197C4.45503 9.36332 4.25677 9.36332 4.13449 9.24198C4.13449 9.24198 4.13448 9.24197 4.13448 9.24197L0.0936661 5.23221C-0.0286179 5.11086 -0.0286179 4.91413 0.0936661 4.79278L0.989796 3.90354C1.11208 3.7822 1.31034 3.7822 1.43263 3.90354L4.30051 6.74939C4.33109 6.77972 4.38065 6.77972 4.41122 6.74939C4.41122 6.74939 4.41122 6.74939 4.41122 6.74939L7.27897 3.90354C7.40125 3.78219 7.59951 3.78219 7.7218 3.90353C7.7218 3.90353 7.7218 3.90353 7.7218 3.90353L10.5897 6.74939C10.6203 6.77972 10.6698 6.77972 10.7004 6.74939L13.5682 3.90359C13.6905 3.78225 13.8888 3.78225 14.0111 3.90359Z" fill="#3B99FC" />
    </g>
    <defs>
        <clipPath id="clip0_105_1192">
                <rect width="15.0007" height="9.37546" fill="white" />
        </clipPath>
    </defs>
</svg>