<svg xmlns="http://www.w3.org/2000/svg">
    <symbol viewBox="0 0 25 25" id="profile" fill='none'>
      <path d="M3.23828 19.5C4.56369 17.2892 7.46856 15.7762 12.0006 15.7762C16.5326 15.7762 19.4374 17.2892 20.7628 19.5M15.6006 8.1C15.6006 10.0882 13.9888 11.7 12.0006 11.7C10.0123 11.7 8.40056 10.0882 8.40056 8.1C8.40056 6.11177 10.0123 4.5 12.0006 4.5C13.9888 4.5 15.6006 6.11177 15.6006 8.1Z" stroke="#3F4DFA" stroke-width="2" stroke-linecap="round"/>
    </symbol>

    <symbol viewBox="0 0 25 25" fill="none" id='heart'>
        <path fill-rule="evenodd" clip-rule="evenodd" d="M3.80577 6.20659C4.7059 5.30673 5.92658 4.80122 7.19936 4.80122C8.47215 4.80122 9.69283 5.30673 10.593 6.20659L11.9994 7.61179L13.4058 6.20659C13.8485 5.74815 14.3782 5.38247 14.9638 5.13091C15.5494 4.87934 16.1793 4.74693 16.8166 4.74139C17.454 4.73585 18.086 4.8573 18.6759 5.09865C19.2658 5.34 19.8018 5.69641 20.2525 6.1471C20.7031 6.59778 21.0596 7.13371 21.3009 7.72361C21.5423 8.31352 21.6637 8.94558 21.6582 9.58292C21.6526 10.2203 21.5202 10.8501 21.2686 11.4357C21.0171 12.0214 20.6514 12.551 20.193 12.9938L11.9994 21.1886L3.80577 12.9938C2.9059 12.0937 2.40039 10.873 2.40039 9.60019C2.40039 8.32741 2.9059 7.10673 3.80577 6.20659V6.20659Z" stroke="#3F4DFA" stroke-width="2" stroke-linejoin="round" />
    </symbol>

    <symbol viewBox="0 0 25 25" id="hand" fill='none'>
        <path d="M7.72937 19.512C7.20498 19.6853 6.92036 20.2509 7.09367 20.7753C7.26697 21.2997 7.83256 21.5843 8.35695 21.411L7.72937 19.512ZM13.8622 20.8462L13.7722 19.8502L13.8622 20.8462ZM17.3536 20.0769L17.7891 20.9771H17.7891L17.3536 20.0769ZM20.6897 17.0681L19.9153 16.4354L20.6897 17.0681ZM18.408 15.1854L19.1121 15.8955L18.408 15.1854ZM16.8715 16.7087L17.5756 17.4188L16.8715 16.7087ZM12.6984 16.3846C12.1461 16.3846 11.6984 16.8323 11.6984 17.3846C11.6984 17.9369 12.1461 18.3846 12.6984 18.3846V16.3846ZM20.335 14.9962L19.7836 15.8305L20.335 14.9962ZM9.22402 14.4915L9.66816 15.3875H9.66816L9.22402 14.4915ZM13.4001 14.1128L13.6611 13.1475H13.6611L13.4001 14.1128ZM15.0309 14.5538L14.7699 15.5191H14.7699L15.0309 14.5538ZM15.5476 16.4829L14.8435 15.7727L15.5476 16.4829ZM13.934 16.6745C13.5418 17.0633 13.5391 17.6965 13.9279 18.0887C14.3168 18.4809 14.9499 18.4836 15.3421 18.0948L13.934 16.6745ZM8.35695 21.411C8.4545 21.3788 8.67974 21.3518 9.10006 21.3815C9.50005 21.4098 9.96832 21.4794 10.5079 21.5634C11.5286 21.7224 12.8321 21.9433 13.9521 21.8421L13.7722 19.8502C12.9526 19.9242 11.9284 19.7605 10.8156 19.5872C10.2883 19.5051 9.73824 19.4216 9.24113 19.3865C8.76435 19.3528 8.21371 19.352 7.72937 19.512L8.35695 21.411ZM13.9521 21.8421C15.4538 21.7065 16.2079 21.7421 17.7891 20.9771L16.9181 19.1767C15.7223 19.7553 15.3478 19.7079 13.7722 19.8502L13.9521 21.8421ZM17.7891 20.9771C19.219 20.2853 20.6284 18.7238 21.4642 17.7007L19.9153 16.4354C19.0698 17.4704 17.9056 18.699 16.9181 19.1767L17.7891 20.9771ZM17.7039 14.4753L16.1675 15.9986L17.5756 17.4188L19.1121 15.8955L17.7039 14.4753ZM15.2257 16.3846H12.6984V18.3846H15.2257V16.3846ZM16.1675 15.9986C15.9191 16.2448 15.5805 16.3846 15.2257 16.3846V18.3846C16.1054 18.3846 16.9509 18.0382 17.5756 17.4188L16.1675 15.9986ZM20.8864 14.162C19.8866 13.5011 18.5558 13.6307 17.7039 14.4753L19.1121 15.8955C19.2897 15.7194 19.572 15.6906 19.7836 15.8305L20.8864 14.162ZM21.4642 17.7007C22.4053 16.5487 22.046 14.9284 20.8864 14.162L19.7836 15.8305C20.0394 15.9995 20.0448 16.2769 19.9153 16.4354L21.4642 17.7007ZM3.77587 14.5385H6.87935V12.5385H3.77587V14.5385ZM6.65522 14.3077V21.2308H8.65522V14.3077H6.65522ZM6.87935 21H3.77587V23H6.87935V21ZM4 21.2308V14.3077H2V21.2308H4ZM3.77587 21C3.89153 21 4 21.0952 4 21.2308H2C2 22.216 2.80321 23 3.77587 23V21ZM6.65522 21.2308C6.65522 21.0952 6.76369 21 6.87935 21V23C7.85201 23 8.65522 22.216 8.65522 21.2308H6.65522ZM6.87935 14.5385C6.76369 14.5385 6.65522 14.4432 6.65522 14.3077H8.65522C8.65522 13.3225 7.85202 12.5385 6.87935 12.5385V14.5385ZM3.77587 12.5385C2.8032 12.5385 2 13.3225 2 14.3077H4C4 14.4432 3.89153 14.5385 3.77587 14.5385V12.5385ZM8.4873 15.9729L9.66816 15.3875L8.77987 13.5956L7.59901 14.181L8.4873 15.9729ZM11.6529 14.9231H11.9711V12.9231H11.6529V14.9231ZM13.1391 15.0781L14.7699 15.5191L15.2919 13.5884L13.6611 13.1475L13.1391 15.0781ZM14.8435 15.7727L13.934 16.6745L15.3421 18.0948L16.2517 17.193L14.8435 15.7727ZM14.7699 15.5191C14.8963 15.5533 14.922 15.6949 14.8435 15.7727L16.2517 17.193C17.4369 16.0179 16.8897 14.0205 15.2919 13.5884L14.7699 15.5191ZM11.9711 14.9231C12.3657 14.9231 12.7585 14.9752 13.1391 15.0781L13.6611 13.1475C13.1102 12.9985 12.5419 12.9231 11.9711 12.9231V14.9231ZM9.66816 15.3875C10.284 15.0822 10.9635 14.9231 11.6529 14.9231V12.9231C10.6559 12.9231 9.67231 13.1532 8.77987 13.5956L9.66816 15.3875ZM16.7415 8.15385C16.7415 9.29281 15.8079 10.2308 14.6381 10.2308V12.2308C16.8962 12.2308 18.7415 10.4136 18.7415 8.15385H16.7415ZM14.6381 10.2308C13.4682 10.2308 12.5346 9.29281 12.5346 8.15385H10.5346C10.5346 10.4136 12.3799 12.2308 14.6381 12.2308V10.2308ZM12.5346 8.15385C12.5346 7.01488 13.4682 6.07692 14.6381 6.07692V4.07692C12.3799 4.07692 10.5346 5.89414 10.5346 8.15385H12.5346ZM14.6381 6.07692C15.8079 6.07692 16.7415 7.01488 16.7415 8.15385H18.7415C18.7415 5.89414 16.8962 4.07692 14.6381 4.07692V6.07692ZM11.5346 7.15385C10.3647 7.15385 9.43109 6.21589 9.43109 5.07692H7.43109C7.43109 7.33663 9.2764 9.15385 11.5346 9.15385V7.15385ZM9.43109 5.07692C9.43109 3.93796 10.3647 3 11.5346 3V1C9.2764 1 7.43109 2.81722 7.43109 5.07692H9.43109ZM11.5346 3C12.7044 3 13.6381 3.93796 13.6381 5.07692H15.6381C15.6381 2.81722 13.7927 1 11.5346 1V3Z" fill="#3F4DFA" />
    </symbol>

    <symbol viewBox="0 0 25 25" fill="none" id="stars">
        <path d="M14.8239 2.3999L16.6542 7.34611L21.6004 9.17637L16.6542 11.0066L14.8239 15.9528L12.9937 11.0066L8.04745 9.17637L12.9937 7.34611L14.8239 2.3999Z" stroke="#3F4DFA" stroke-width="2" stroke-linejoin="round" />
        <path d="M6.35333 13.694L7.95216 16.0481L10.3063 17.647L7.95216 19.2458L6.35333 21.5999L4.75451 19.2458L2.40039 17.647L4.75451 16.0481L6.35333 13.694Z" stroke="#3F4DFA" stroke-width="2" stroke-linejoin="round" />
    </symbol>

    <symbol viewBox="0 0 25 25" id='settings' fill='none'>
        <path fill-rule="evenodd" clip-rule="evenodd" d="M13.6763 4.31627C13.2488 2.56124 10.7512 2.56124 10.3237 4.31627C10.2599 4.57999 10.1347 4.82492 9.95831 5.03112C9.78194 5.23732 9.55938 5.39897 9.30874 5.50291C9.0581 5.60684 8.78646 5.65014 8.51592 5.62927C8.24538 5.60839 7.9836 5.52394 7.75187 5.38279C6.20832 4.44227 4.44201 6.20855 5.38254 7.75207C5.99006 8.74884 5.45117 10.0494 4.31713 10.325C2.56096 10.7514 2.56096 13.25 4.31713 13.6753C4.58093 13.7392 4.8259 13.8645 5.03211 14.041C5.23831 14.2175 5.39991 14.4402 5.50375 14.691C5.6076 14.9418 5.65074 15.2135 5.62968 15.4841C5.60862 15.7547 5.52394 16.0165 5.38254 16.2482C4.44201 17.7917 6.20832 19.558 7.75187 18.6175C7.98356 18.4761 8.24536 18.3914 8.51597 18.3704C8.78658 18.3493 9.05834 18.3924 9.30912 18.4963C9.5599 18.6001 9.7826 18.7617 9.95911 18.9679C10.1356 19.1741 10.2609 19.4191 10.3248 19.6829C10.7512 21.439 13.2499 21.439 13.6752 19.6829C13.7393 19.4192 13.8647 19.1744 14.0413 18.9684C14.2178 18.7623 14.4405 18.6008 14.6912 18.497C14.9419 18.3932 15.2135 18.35 15.4841 18.3709C15.7546 18.3919 16.0164 18.4764 16.2481 18.6175C17.7917 19.558 19.558 17.7917 18.6175 16.2482C18.4763 16.0165 18.3918 15.7547 18.3709 15.4842C18.35 15.2136 18.3932 14.942 18.497 14.6913C18.6008 14.4406 18.7623 14.2179 18.9683 14.0414C19.1744 13.8648 19.4192 13.7394 19.6829 13.6753C21.439 13.2489 21.439 10.7502 19.6829 10.325C19.4191 10.2611 19.1741 10.1358 18.9679 9.95928C18.7617 9.78278 18.6001 9.56007 18.4962 9.3093C18.3924 9.05853 18.3493 8.78677 18.3703 8.51617C18.3914 8.24556 18.4761 7.98376 18.6175 7.75207C19.558 6.20855 17.7917 4.44227 16.2481 5.38279C16.0164 5.52418 15.7546 5.60886 15.484 5.62992C15.2134 5.65098 14.9417 5.60784 14.6909 5.504C14.4401 5.40016 14.2174 5.23856 14.0409 5.03236C13.8644 4.82616 13.7391 4.58119 13.6752 4.3174L13.6763 4.31627Z" stroke="#3F4DFA" stroke-width="2" />
        <path d="M14 12C14 13.1046 13.1046 14 12 14C10.8954 14 10 13.1046 10 12C10 10.8954 10.8954 10 12 10C13.1046 10 14 10.8954 14 12Z" stroke="#3F4DFA" stroke-width="2" />
    </symbol>

    <symbol viewBox="0 0 25 25" id='language' fill='none'>
        <path d="M12 21C16.9706 21 21 16.9706 21 12C21 7.02944 16.9706 3 12 3M12 21C7.02944 21 3 16.9706 3 12C3 7.02944 7.02944 3 12 3M12 21C9.82538 21 8.0625 16.9706 8.0625 12C8.0625 7.02944 9.82538 3 12 3M12 21C14.1746 21 15.9375 16.9706 15.9375 12C15.9375 7.02944 14.1746 3 12 3M4.6875 16.3744C6.33632 15.4302 9.07573 14.8125 12.1764 14.8125C15.4124 14.8125 18.255 15.4854 19.875 16.5M4.6875 7.62558C6.33632 8.56975 9.07573 9.1875 12.1764 9.1875C15.4124 9.1875 18.255 8.5146 19.875 7.5" stroke="#3F4DFA" stroke-width="2" />
    </symbol>

    <symbol viewBox="0 0 25 25" id='help' fill='none'>
        <path d="M11.999 16.5V16.5396M9.75 9.22999C9.75 7.96388 10.7574 6.9375 12 6.9375C13.2426 6.9375 14.25 7.96388 14.25 9.22999C14.25 10.4961 13.2426 11.5225 12 11.5225C12 11.5225 11.999 12.2067 11.999 13.0508M21 12C21 16.9706 16.9706 21 12 21C7.02944 21 3 16.9706 3 12C3 7.02944 7.02944 3 12 3C16.9706 3 21 7.02944 21 12Z" stroke="#3F4DFA" stroke-width="2" stroke-linecap="round" stroke-linejoin="round" />
    </symbol>

    <symbol viewBox="0 0 16 17" fill="none" id='instagram'>
        <g clip-path="url(#clip0_2431_362)">
            <path d="M8 2.33906C10.1375 2.33906 10.3906 2.34844 11.2313 2.38594C12.0125 2.42031 12.4344 2.55156 12.7156 2.66094C13.0875 2.80469 13.3563 2.97969 13.6344 3.25781C13.9156 3.53906 14.0875 3.80469 14.2313 4.17656C14.3406 4.45781 14.4719 4.88281 14.5063 5.66094C14.5438 6.50469 14.5531 6.75781 14.5531 8.89219C14.5531 11.0297 14.5438 11.2828 14.5063 12.1234C14.4719 12.9047 14.3406 13.3266 14.2313 13.6078C14.0875 13.9797 13.9125 14.2484 13.6344 14.5266C13.3531 14.8078 13.0875 14.9797 12.7156 15.1234C12.4344 15.2328 12.0094 15.3641 11.2313 15.3984C10.3875 15.4359 10.1344 15.4453 8 15.4453C5.8625 15.4453 5.60938 15.4359 4.76875 15.3984C3.9875 15.3641 3.56563 15.2328 3.28438 15.1234C2.9125 14.9797 2.64375 14.8047 2.36563 14.5266C2.08438 14.2453 1.9125 13.9797 1.76875 13.6078C1.65938 13.3266 1.52813 12.9016 1.49375 12.1234C1.45625 11.2797 1.44688 11.0266 1.44688 8.89219C1.44688 6.75469 1.45625 6.50156 1.49375 5.66094C1.52813 4.87969 1.65938 4.45781 1.76875 4.17656C1.9125 3.80469 2.0875 3.53594 2.36563 3.25781C2.64688 2.97656 2.9125 2.80469 3.28438 2.66094C3.56563 2.55156 3.99063 2.42031 4.76875 2.38594C5.60938 2.34844 5.8625 2.33906 8 2.33906ZM8 0.898438C5.82813 0.898438 5.55625 0.907812 4.70313 0.945312C3.85313 0.982813 3.26875 1.12031 2.7625 1.31719C2.23438 1.52344 1.7875 1.79531 1.34375 2.24219C0.896875 2.68594 0.625 3.13281 0.41875 3.65781C0.221875 4.16719 0.084375 4.74844 0.046875 5.59844C0.009375 6.45469 0 6.72656 0 8.89844C0 11.0703 0.009375 11.3422 0.046875 12.1953C0.084375 13.0453 0.221875 13.6297 0.41875 14.1359C0.625 14.6641 0.896875 15.1109 1.34375 15.5547C1.7875 15.9984 2.23438 16.2734 2.75938 16.4766C3.26875 16.6734 3.85 16.8109 4.7 16.8484C5.55313 16.8859 5.825 16.8953 7.99688 16.8953C10.1688 16.8953 10.4406 16.8859 11.2938 16.8484C12.1438 16.8109 12.7281 16.6734 13.2344 16.4766C13.7594 16.2734 14.2063 15.9984 14.65 15.5547C15.0938 15.1109 15.3688 14.6641 15.5719 14.1391C15.7688 13.6297 15.9063 13.0484 15.9438 12.1984C15.9813 11.3453 15.9906 11.0734 15.9906 8.90156C15.9906 6.72969 15.9813 6.45781 15.9438 5.60469C15.9063 4.75469 15.7688 4.17031 15.5719 3.66406C15.375 3.13281 15.1031 2.68594 14.6563 2.24219C14.2125 1.79844 13.7656 1.52344 13.2406 1.32031C12.7313 1.12344 12.15 0.985938 11.3 0.948438C10.4438 0.907813 10.1719 0.898438 8 0.898438Z" fill="#24222A" />
            <path d="M8 4.78906C5.73125 4.78906 3.89062 6.62969 3.89062 8.89844C3.89062 11.1672 5.73125 13.0078 8 13.0078C10.2688 13.0078 12.1094 11.1672 12.1094 8.89844C12.1094 6.62969 10.2688 4.78906 8 4.78906ZM8 11.5641C6.52813 11.5641 5.33437 10.3703 5.33437 8.89844C5.33437 7.42656 6.52813 6.23281 8 6.23281C9.47188 6.23281 10.6656 7.42656 10.6656 8.89844C10.6656 10.3703 9.47188 11.5641 8 11.5641Z" fill="#24222A" />
            <path d="M13.2312 4.62637C13.2312 5.15762 12.8 5.58574 12.2719 5.58574C11.7406 5.58574 11.3125 5.15449 11.3125 4.62637C11.3125 4.09512 11.7438 3.66699 12.2719 3.66699C12.8 3.66699 13.2312 4.09824 13.2312 4.62637Z" fill="#24222A" />
        </g>
        <defs>
            <clipPath id="clip0_2431_362">
                <rect width="16" height="16" fill="white" transform="translate(0 0.898438)" />
            </clipPath>
        </defs>
    </symbol>

    <symbol viewBox="0 0 16 17" fill="none" id="linkedIn">
        <g clip-path="url(#clip0_2431_366)">
            <path d="M14.8156 0.898438H1.18125C0.528125 0.898438 0 1.41406 0 2.05156V15.7422C0 16.3797 0.528125 16.8984 1.18125 16.8984H14.8156C15.4688 16.8984 16 16.3797 16 15.7453V2.05156C16 1.41406 15.4688 0.898438 14.8156 0.898438ZM4.74687 14.5328H2.37188V6.89531H4.74687V14.5328ZM3.55938 5.85469C2.79688 5.85469 2.18125 5.23906 2.18125 4.47969C2.18125 3.72031 2.79688 3.10469 3.55938 3.10469C4.31875 3.10469 4.93437 3.72031 4.93437 4.47969C4.93437 5.23594 4.31875 5.85469 3.55938 5.85469ZM13.6344 14.5328H11.2625V10.8203C11.2625 9.93594 11.2469 8.79531 10.0281 8.79531C8.79375 8.79531 8.60625 9.76094 8.60625 10.7578V14.5328H6.2375V6.89531H8.5125V7.93906H8.54375C8.85938 7.33906 9.63438 6.70469 10.7875 6.70469C13.1906 6.70469 13.6344 8.28594 13.6344 10.3422V14.5328Z" fill="#24222A" />
        </g>
        <defs>
            <clipPath id="clip0_2431_366">
                <rect width="16" height="16" fill="white" transform="translate(0 0.898438)" />
            </clipPath>
        </defs>
    </symbol>

    <symbol viewBox="0 0 16 17" fill="none" id="facebook">
        <g clip-path="url(#clip0_2431_368)">
            <path d="M8 0.898438C3.58176 0.898438 0 4.4802 0 8.89844C0 12.6501 2.58304 15.7983 6.06752 16.6629V11.3432H4.41792V8.89844H6.06752V7.845C6.06752 5.12212 7.29984 3.86004 9.97312 3.86004C10.48 3.86004 11.3546 3.95956 11.7123 4.05876V6.27476C11.5235 6.25492 11.1955 6.245 10.7882 6.245C9.47648 6.245 8.9696 6.74196 8.9696 8.0338V8.89844H11.5827L11.1338 11.3432H8.9696V16.8399C12.9309 16.3615 16.0003 12.9887 16.0003 8.89844C16 4.4802 12.4182 0.898438 8 0.898438Z" fill="#24222A" />
        </g>
        <defs>
            <clipPath id="clip0_2431_368">
                <rect width="16" height="16" fill="white" transform="translate(0 0.898438)" />
            </clipPath>
        </defs>
    </symbol>

    <symbol viewBox="0 0 16 17" fill="none" id="x">
        <path d="M12.2169 2.16797H14.4659L9.55249 7.78363L15.3327 15.4253H10.8068L7.26204 10.7907L3.20598 15.4253H0.955637L6.21097 9.4187L0.666016 2.16797H5.30676L8.51095 6.40419L12.2169 2.16797ZM11.4276 14.0792H12.6737L4.62961 3.44339H3.29232L11.4276 14.0792Z" fill="#24222A" />
    </symbol>

    <symbol viewBox="0 0 16 17" fill="none" id="telegram">
        <g clip-path="url(#clip0_2431_372)">
            <path fill-rule="evenodd" clip-rule="evenodd" d="M16 8.89844C16 13.3167 12.4183 16.8984 8 16.8984C3.58172 16.8984 0 13.3167 0 8.89844C0 4.48016 3.58172 0.898438 8 0.898438C12.4183 0.898438 16 4.48016 16 8.89844ZM8.28668 6.80439C7.50857 7.12804 5.95342 7.7979 3.62126 8.81399C3.24256 8.96458 3.04417 9.11191 3.02611 9.25597C2.99559 9.49944 3.30047 9.5953 3.71565 9.72585C3.77212 9.74361 3.83064 9.76201 3.89062 9.78151C4.29909 9.91429 4.84855 10.0696 5.13419 10.0758C5.3933 10.0814 5.68249 9.97457 6.00176 9.75533C8.18077 8.28444 9.30559 7.54098 9.37621 7.52495C9.42603 7.51364 9.49507 7.49942 9.54184 7.541C9.58862 7.58258 9.58402 7.66132 9.57907 7.68244C9.54886 7.8112 8.35208 8.92383 7.73275 9.49962C7.53967 9.67912 7.40272 9.80645 7.37472 9.83553C7.312 9.90067 7.24809 9.96229 7.18665 10.0215C6.80718 10.3873 6.52261 10.6617 7.20241 11.1096C7.52909 11.3249 7.79051 11.5029 8.05131 11.6805C8.33612 11.8745 8.62019 12.0679 8.98774 12.3089C9.08139 12.3703 9.17082 12.434 9.25793 12.4961C9.58938 12.7324 9.88717 12.9447 10.2551 12.9109C10.4688 12.8912 10.6896 12.6902 10.8018 12.0907C11.0668 10.6739 11.5878 7.60407 11.7081 6.33909C11.7187 6.22826 11.7054 6.08642 11.6948 6.02415C11.6841 5.96189 11.6618 5.87318 11.5809 5.8075C11.4851 5.72973 11.3371 5.71333 11.2709 5.71449C10.97 5.71979 10.5084 5.88032 8.28668 6.80439Z" fill="#24222A" />
        </g>
        <defs>
            <clipPath id="clip0_2431_372">
                <rect width="16" height="16" fill="white" transform="translate(0 0.898438)" />
            </clipPath>
        </defs>
    </symbol>

    <symbol viewBox="0 0 20 20" fill="none" id='metamask'>
        <path d="M19.0041 0.61084L11.2002 6.43117L12.6433 2.99725L19.0041 0.61084Z" fill="#E2761B" />
        <path d="M0.98808 0.61084L8.72926 6.4863L7.35671 2.99725L0.98808 0.61084ZM16.1959 14.1024L14.1175 17.3L18.5646 18.5286L19.843 14.1732L16.1959 14.1024ZM0.164551 14.1732L1.43514 18.5286L5.8822 17.3L3.80377 14.1024L0.164551 14.1732Z" fill="#E4761B" />
        <path d="M5.6313 8.69933L4.39209 10.5817L8.80778 10.7786L8.65091 6.01363L5.6313 8.69933ZM14.3607 8.69933L11.3019 5.9585L11.1999 10.7786L15.6078 10.5817L14.3607 8.69933ZM5.88229 17.2999L8.53327 16.0003L6.24307 14.2046L5.88229 17.2999ZM11.4588 16.0003L14.1176 17.2999L13.749 14.2046L11.4588 16.0003Z" fill="#E4761B" />
        <path d="M14.1176 17.3L11.4588 16.0005L11.6706 17.7411L11.647 18.4735L14.1176 17.3ZM5.88232 17.3L8.35291 18.4735L8.33723 17.7411L8.5333 16.0005L5.88232 17.3Z" fill="#D7C1B3" />
        <path d="M8.39194 13.055L6.18018 12.4013L7.74096 11.6846L8.39194 13.055ZM11.5998 13.055L12.2508 11.6846L13.8194 12.4013L11.5998 13.055Z" fill="#233447" />
        <path d="M5.88214 17.3002L6.25861 14.1026L3.80371 14.1735L5.88214 17.3002ZM13.741 14.1026L14.1174 17.3002L16.1959 14.1735L13.741 14.1026ZM15.6076 10.582L11.1998 10.7789L11.6076 13.0551L12.2586 11.6847L13.8272 12.4014L15.6076 10.582ZM6.18018 12.4014L7.74881 11.6847L8.39195 13.0551L8.80763 10.7789L4.39195 10.582L6.18018 12.4014Z" fill="#CD6116" />
        <path d="M4.39209 10.582L6.24307 14.205L6.18032 12.4014L4.39209 10.582ZM13.8274 12.4014L13.749 14.205L15.6078 10.582L13.8274 12.4014ZM8.80778 10.7789L8.39209 13.0551L8.90974 15.7408L9.02738 12.2045L8.80778 10.7789ZM11.1999 10.7789L10.9882 12.1966L11.0823 15.7408L11.6078 13.0551L11.1999 10.7789Z" fill="#E4751F" />
        <path d="M11.6076 13.0551L11.0821 15.7408L11.4586 16.0007L13.7488 14.205L13.8272 12.4014L11.6076 13.0551ZM6.18018 12.4014L6.24292 14.205L8.53312 16.0007L8.90959 15.7408L8.39194 13.0551L6.18018 12.4014Z" fill="#F6851B" />
        <path d="M11.647 18.4733L11.6706 17.7409L11.4745 17.5676H8.51762L8.33723 17.7409L8.35291 18.4733L5.88232 17.2998L6.74507 18.0086L8.49409 19.2294H11.498L13.2549 18.0086L14.1176 17.2998L11.647 18.4733Z" fill="#C0AD9E" />
        <path d="M11.459 16.0006L11.0825 15.7407H8.90995L8.53348 16.0006L8.3374 17.7412L8.51779 17.5679H11.4747L11.6707 17.7412L11.459 16.0006Z" fill="#161616" />
        <path d="M19.3333 6.80922L20 3.59583L19.0039 0.61084L11.4588 6.23427L14.3608 8.69945L18.4627 9.90447L19.3725 8.84121L18.9804 8.55768L19.6078 7.98273L19.1216 7.60469L19.749 7.12425L19.3333 6.80922ZM0 3.59583L0.666667 6.80922L0.243137 7.12425L0.870588 7.60469L0.392157 7.98273L1.01961 8.55768L0.627451 8.84121L1.52941 9.90447L5.63137 8.69945L8.53333 6.23427L0.988236 0.61084L0 3.59583Z" fill="#763D16" />
        <path d="M18.4626 9.90428L14.3606 8.69926L15.6077 10.5816L13.7489 14.2046L16.1959 14.173H19.843L18.4626 9.90428ZM5.63122 8.69926L1.52926 9.90428L0.164551 14.173H3.80377L6.24298 14.2046L4.392 10.5816L5.63122 8.69926ZM11.1998 10.7785L11.4587 6.23409L12.6508 2.99707H7.35671L8.53318 6.23409L8.80769 10.7785L8.90181 12.2119L8.90965 15.7404H11.0822L11.0979 12.2119L11.1998 10.7785Z" fill="#F6851B" />
    </symbol>

    <symbol width="18" height="29" viewBox="0 0 18 29" fill="none" id='eth'>
        <g clip-path="url(#clip0_2431_2474)">
            <path d="M8.99811 0.5L8.80273 1.14548V19.8759L8.99811 20.0655L17.9428 14.9262L8.99811 0.5Z" fill="#343434" />
            <path d="M8.99745 0.5L0.0527344 14.9262L8.99745 20.0656V10.9744V0.5Z" fill="#8C8C8C" />
            <path d="M8.99681 21.7119L8.88672 21.8423V28.5145L8.99681 28.8271L17.9469 16.5752L8.99681 21.7119Z" fill="#3C3C3B" />
            <path d="M8.99745 28.8272V21.7119L0.0527344 16.5752L8.99745 28.8272Z" fill="#8C8C8C" />
            <path d="M8.99805 20.0657L17.9426 14.9265L8.99805 10.9746V20.0657Z" fill="#141414" />
            <path d="M0.0527344 14.9265L8.99731 20.0657V10.9746L0.0527344 14.9265Z" fill="#393939" />
        </g>
        <defs>
            <clipPath id="clip0_2431_2474">
                <rect width="17.8947" height="28.3333" fill="white" transform="translate(0.0527344 0.5)" />
            </clipPath>
        </defs>
    </symbol>

    <symbol viewBox="0 0 25 25" fill="none" id='addFunds'>
        <path d="M13.8398 18.6397H4.2401C2.91465 18.6397 1.84014 17.5652 1.8401 16.2397L1.83984 7.23991C1.83981 5.9144 2.91433 4.83984 4.23984 4.83984H18.6393C19.9648 4.83984 21.0393 5.91374 21.0393 7.23926L21.0394 11.4398M2.43938 9.0397H20.4394M19.6331 19.16L19.6331 16.6338M19.6331 16.6338L19.6331 14.1076M19.6331 16.6338H17.1069M19.6331 16.6338H22.1593" stroke="#3F4DFA" stroke-width="2" stroke-linecap="round" stroke-linejoin="round" />
    </symbol>

    <symbol viewBox="0 0 24 24" fill="none" id='secure'>
        <path d="M6.60078 8.80039V7.8861C6.60078 4.84719 9.00935 2.40039 12.0008 2.40039C14.9922 2.40039 17.4008 4.84719 17.4008 7.8861V8.80039M6.60078 8.80039C5.61078 8.80039 4.80078 9.62325 4.80078 10.629V19.7718C4.80078 20.7775 5.61078 21.6004 6.60078 21.6004H17.4008C18.3908 21.6004 19.2008 20.7775 19.2008 19.7718V10.629C19.2008 9.62325 18.3908 8.80039 17.4008 8.80039M6.60078 8.80039H17.4008M12.0008 16.2004V13.8004" stroke="#3F4DFA" stroke-width="2" stroke-linecap="round" />
    </symbol>

    <symbol viewBox="0 0 25 25" fill="none" id='exit'>
        <path d="M8.78056 3.59961H5.07468C4.51304 3.59961 3.97441 3.82086 3.57728 4.21468C3.18014 4.60851 2.95703 5.14265 2.95703 5.69961V18.2996C2.95703 18.8566 3.18014 19.3907 3.57728 19.7845C3.97441 20.1784 4.51304 20.3996 5.07468 20.3996H8.78056M9.04375 11.9996H21.0438M21.0438 11.9996L16.4586 7.19961M21.0438 11.9996L16.4586 16.7996" stroke="#3F4DFA" stroke-width="2" stroke-linecap="round" stroke-linejoin="round" />
    </symbol>

    <symbol viewBox="0 0 25 25" fill="none" id="copy">
        <path d="M20 13.1251L20 6.00003C20 4.34317 18.6568 3.00002 17 3.00003L9.875 3.00012M14 21.0001L7.25 21.0001C6.00736 21.0001 5 19.9928 5 18.7501L5 9.00012C5 7.75747 6.00736 6.75011 7.25 6.75011L14 6.75011C15.2426 6.75011 16.25 7.75747 16.25 9.00011L16.25 18.7501C16.25 19.9928 15.2426 21.0001 14 21.0001Z" stroke="black" stroke-width="2" stroke-linecap="round" />
    </symbol>

    <symbol viewBox="0 0 25 25" fill="none" id='ok'>
        <path d="M16.8 8.3999L9.64043 15.5999L7.19995 13.1456" stroke="black" stroke-width="2" stroke-linecap="round" stroke-linejoin="round" />
    </symbol>

    <symbol viewBox="0 0 25 25" fill="none" id='circleOk'>
        <path d="M15.142 9.98299L10.875 14.25L9.42049 12.7955M12 3C7.02944 3 3 7.02944 3 12C3 16.9706 7.02944 21 12 21C16.9706 21 21 16.9706 21 12C21 7.02944 16.9706 3 12 3Z" stroke="black" stroke-width="2" stroke-linecap="round" stroke-linejoin="round" />
    </symbol>

    <symbol viewBox="0 0 14 14" fill="none" id='close'>
        <path d="M13 1L1 13M13 13L1 1" stroke="#494455" stroke-width="2" stroke-linecap="round" />
    </symbol>

    <symbol viewBox="0 0 15 10" fill="none" id="walletconnect">
        <g clip-path="url(#clip0_105_1192)">
            <path d="M3.07214 1.83725C5.51782 -0.589631 9.48305 -0.589631 11.9287 1.83725L12.2231 2.12933C12.3454 2.25068 12.3454 2.44741 12.2231 2.56876L11.2162 3.5679C11.155 3.62858 11.0559 3.62858 10.9948 3.5679L10.5897 3.16597C8.88356 1.47291 6.11731 1.47291 4.41115 3.16597L3.97737 3.59641C3.91623 3.65708 3.8171 3.65708 3.75596 3.59641L2.74907 2.59726C2.62679 2.47592 2.62679 2.27918 2.74907 2.15784L3.07214 1.83725ZM14.0111 3.90359L14.9072 4.79283C15.0295 4.91418 15.0295 5.11091 14.9072 5.23226L10.8665 9.24197C10.7442 9.36332 10.5459 9.36332 10.4237 9.24197C10.4237 9.24197 10.4237 9.24197 10.4237 9.24197L7.55581 6.39616C7.52524 6.36583 7.47567 6.36583 7.4451 6.39616L7.4451 6.39616L4.57732 9.24197C4.45503 9.36332 4.25677 9.36332 4.13449 9.24198C4.13449 9.24198 4.13448 9.24197 4.13448 9.24197L0.0936661 5.23221C-0.0286179 5.11086 -0.0286179 4.91413 0.0936661 4.79278L0.989796 3.90354C1.11208 3.7822 1.31034 3.7822 1.43263 3.90354L4.30051 6.74939C4.33109 6.77972 4.38065 6.77972 4.41122 6.74939C4.41122 6.74939 4.41122 6.74939 4.41122 6.74939L7.27897 3.90354C7.40125 3.78219 7.59951 3.78219 7.7218 3.90353C7.7218 3.90353 7.7218 3.90353 7.7218 3.90353L10.5897 6.74939C10.6203 6.77972 10.6698 6.77972 10.7004 6.74939L13.5682 3.90359C13.6905 3.78225 13.8888 3.78225 14.0111 3.90359Z" fill="#3B99FC" />
        </g>
        <defs>
            <clipPath id="clip0_105_1192">
                <rect width="15.0007" height="9.37546" fill="white" />
            </clipPath>
        </defs>
    </symbol>

    <symbol viewBox="0 0 20 20" fill="none" id="phantom">
        <path d="M10 20C15.5228 20 20 15.5228 20 10C20 4.47715 15.5228 0 10 0C4.47715 0 0 4.47715 0 10C0 15.5228 4.47715 20 10 20Z" fill="url(#paint0_linear_101_8090)" />
        <path d="M17.1588 10.122H15.3959C15.3959 6.52941 12.4734 3.61719 8.868 3.61719C5.30727 3.61719 2.41234 6.45811 2.34148 9.98917C2.26818 13.6392 5.70473 16.8087 9.36818 16.8087H9.829C13.0588 16.8087 17.3876 14.2893 18.064 11.2197C18.1889 10.6539 17.7404 10.122 17.1588 10.122ZM6.2483 10.2821C6.2483 10.7625 5.85395 11.1554 5.37182 11.1554C4.88968 11.1554 4.49536 10.7623 4.49536 10.2821V8.86917C4.49536 8.38876 4.88968 7.99582 5.37182 7.99582C5.85395 7.99582 6.2483 8.38876 6.2483 8.86917V10.2821ZM9.29171 10.2821C9.29171 10.7625 8.89741 11.1554 8.4153 11.1554C7.93312 11.1554 7.53883 10.7623 7.53883 10.2821V8.86917C7.53883 8.38876 7.9333 7.99582 8.4153 7.99582C8.89741 7.99582 9.29171 8.38876 9.29171 8.86917V10.2821Z" fill="url(#paint1_linear_101_8090)" />
        <defs>
            <linearGradient id="paint0_linear_101_8090" x1="10" y1="0" x2="10" y2="20" gradientUnits="userSpaceOnUse">
                <stop stop-color="#534BB1" />
                <stop offset="1" stop-color="#551BF9" />
            </linearGradient>
             <linearGradient id="paint1_linear_101_8090" x1="10.2126" y1="3.61719" x2="10.2126" y2="16.8087" gradientUnits="userSpaceOnUse">
                <stop stop-color="white" />
                <stop offset="1" stop-color="white" stop-opacity="0.82" />
            </linearGradient>
        </defs>
    </symbol>
    <symbol viewBox="0 0 24 24" fill="none" id="coinbase">
        <path d="M22 12C22 6.47715 17.5228 2 12 2C6.47715 2 2 6.47715 2 12C2 17.5228 6.47715 22 12 22C17.5228 22 22 17.5228 22 12Z" fill="#0052FF" />
        <path d="M12.0029 15.5156C10.0606 15.5156 8.4873 13.9424 8.4873 12C8.4873 10.0576 10.0606 8.48438 12.0029 8.48438C13.7432 8.48438 15.1875 9.75293 15.4658 11.4141H19.0078C18.709 7.80469 15.6885 4.96875 12.0029 4.96875C8.12109 4.96875 4.97168 8.11816 4.97168 12C4.97168 15.8818 8.12109 19.0312 12.0029 19.0312C15.6885 19.0312 18.709 16.1953 19.0078 12.5859H15.4629C15.1846 14.2471 13.7432 15.5156 12.0029 15.5156Z" fill="white" />
    </symbol>

    <symbol viewBox="0 0 24 24" fill="none" id="brave">
        <path fill-rule="evenodd" clip-rule="evenodd" d="M20.6808 8.46918L20.0518 6.79455L20.4888 5.83255C20.5449 5.70872 20.5179 5.56338 20.4207 5.46728L19.2318 4.28781C18.7119 3.7724 17.9362 3.59521 17.2375 3.83289L16.9051 3.94588L15.1687 2H12.6142H10.9953H8.78376L7.06953 3.96944L6.74632 3.8579C6.04121 3.6146 5.25615 3.79369 4.73281 4.31722L3.5229 5.51879C3.44526 5.59572 3.424 5.71122 3.46908 5.80985L3.9256 6.80832L3.2998 8.48213L3.7049 9.99121L5.5498 16.8697C5.76221 17.6628 6.25172 18.3573 6.9326 18.8329C6.9326 18.8329 9.17259 20.382 11.383 21.7889C11.5773 21.9127 11.7806 22.0032 11.9988 21.9999C12.217 22.0028 12.4203 21.9127 12.6142 21.7883C15.0968 20.1927 17.061 18.8266 17.061 18.8266C17.7412 18.3502 18.2299 17.6549 18.4414 16.8615L20.2776 9.98038L20.6808 8.46918Z" fill="url(#paint0_linear_101_14119)" />
        <path fill-rule="evenodd" clip-rule="evenodd" d="M18.7179 8.80134L18.6892 8.891L18.6434 9.05178C18.5211 9.20107 18.2634 9.48758 18.0705 9.68882L16.2969 11.5372C16.104 11.7382 15.9951 11.9904 16.1053 12.2444L16.3444 12.8224C16.4543 13.0762 16.4652 13.4961 16.3598 13.7781C16.2526 14.065 16.0682 14.3186 15.8265 14.5119L15.6415 14.6598C15.4232 14.8343 15.0364 14.8802 14.7819 14.7615L13.965 14.3815C13.7107 14.2633 13.3313 14.0154 13.1217 13.8306L12.3489 13.1496C12.1981 13.0165 12.1896 12.788 12.3299 12.6449L14.212 11.4C14.4455 11.2457 14.569 10.9602 14.4364 10.7168L13.7672 9.52324C13.6345 9.27968 13.5815 8.95628 13.6492 8.80424C13.7171 8.65224 13.988 8.44787 14.2517 8.35006L16.4365 7.55432C16.6999 7.45654 16.6859 7.3556 16.4054 7.32974L15.0093 7.22798C14.7286 7.20211 14.523 7.24216 14.2517 7.31638L13.195 7.57266C12.9237 7.64692 12.8664 7.92989 12.9172 8.20096L13.3532 10.5181C13.4043 10.7894 13.4292 11.0626 13.4087 11.1254C13.3883 11.1882 13.1468 11.2893 12.8721 11.3504L12.5107 11.4307C12.236 11.4917 11.7858 11.4945 11.5104 11.4371L11.0732 11.3458C10.7977 11.2882 10.5555 11.1898 10.5348 11.1273C10.5144 11.0645 10.5391 10.7909 10.59 10.5198L11.0232 8.20222C11.0741 7.93093 11.0163 7.64837 10.7449 7.57434L9.68789 7.31932C9.41657 7.24529 9.21071 7.20609 8.93023 7.23192L7.53418 7.33495C7.2537 7.361 7.23985 7.46194 7.50329 7.55934L9.68938 8.35277C9.95282 8.45036 10.2241 8.65432 10.2921 8.80633C10.3602 8.95814 10.3074 9.28157 10.1752 9.52513L9.50727 10.7192C9.37499 10.9627 9.49878 11.2482 9.73241 11.4023L11.6163 12.6453C11.7568 12.7882 11.7485 13.0169 11.5979 13.15L10.8258 13.8321C10.6166 14.0171 10.2373 14.2652 9.98308 14.3841L9.16679 14.765C8.91251 14.8837 8.52554 14.8384 8.30725 14.6643L8.1222 14.5167C7.88005 14.3236 7.69519 14.0702 7.57914 13.7605C7.48204 13.5013 7.49227 13.0818 7.60173 12.8276L7.84049 12.2496C7.95018 11.9954 7.84086 11.7432 7.6477 11.5424L5.87205 9.69612C5.67911 9.49532 5.421 9.209 5.29873 9.06012L5.25255 8.89911L5.22377 8.80945C5.22102 8.70624 5.25872 8.37719 5.30153 8.28813C5.34433 8.19951 5.50831 7.93968 5.66609 7.71116L6.04602 7.16043C6.20382 6.93187 6.47664 6.56839 6.65213 6.35259L7.209 5.66862C7.38449 5.45297 7.53422 5.27741 7.55677 5.27886C7.55785 5.27741 7.78507 5.31891 8.06172 5.37083L8.90525 5.52949C9.1819 5.58145 9.48706 5.63858 9.58353 5.6563C9.67982 5.67424 9.97794 5.61919 10.2461 5.53411L10.8528 5.34161C11.1207 5.25634 11.5274 5.14416 11.7564 5.09202L11.9685 5.09515L12.1806 5.0918C12.4095 5.14353 12.8163 5.2553 13.0844 5.34016L13.6916 5.53202C13.9597 5.61688 14.2579 5.67152 14.3541 5.65358C14.4369 5.63817 14.6735 5.59343 14.9138 5.54795L15.0322 5.52555L15.8755 5.36625C16.1522 5.31388 16.3794 5.2722 16.3956 5.27343C16.403 5.2722 16.5527 5.44713 16.7286 5.66296L17.2864 6.3463C17.4623 6.56172 17.7353 6.92479 17.8935 7.15332L18.2741 7.70341C18.4321 7.93175 18.679 8.34738 18.6943 8.44184C18.71 8.5363 18.7205 8.69809 18.7179 8.80134ZM12.0835 14.3172C12.1082 14.3172 12.3416 14.4033 12.6019 14.5091L12.8434 14.6071C13.1036 14.7126 13.5223 14.9011 13.7734 15.026L14.486 15.3805C14.7371 15.5052 14.7551 15.7388 14.526 15.8993L13.9182 16.3252C13.689 16.4857 13.3287 16.7643 13.1177 16.9449C13.0599 16.9943 12.9921 17.0523 12.9198 17.114C12.7278 17.2781 12.5041 17.4694 12.3512 17.6001C12.1408 17.78 11.7999 17.7809 11.5935 17.6024C11.3869 17.4237 11.0451 17.1311 10.8336 16.9524C10.6224 16.7735 10.2612 16.497 10.031 16.3381L9.42535 15.9189C9.19511 15.7596 9.21153 15.525 9.46134 15.3976L10.1777 15.0323C10.4275 14.9047 10.8447 14.7136 11.105 14.6081L11.3465 14.5097C11.6065 14.404 11.8397 14.3172 11.8646 14.3172H11.9741H12.0835Z" fill="url(#paint1_linear_101_14119)" />
        <defs>
            <linearGradient id="paint0_linear_101_14119" x1="3.2998" y1="22.1411" x2="20.6808" y2="22.1411" gradientUnits="userSpaceOnUse">
                <stop stop-color="#FF5500" />
                <stop offset="0.409877" stop-color="#FF5500" />
                <stop offset="0.49434" stop-color="#FF4530" />
                <stop offset="0.572365" stop-color="#FF2000" />
                <stop offset="1" stop-color="#FF2000" />
            </linearGradient>
            <linearGradient id="paint1_linear_101_14119" x1="11.971" y1="20.6922" x2="18.2821" y2="20.6922" gradientUnits="userSpaceOnUse">
                <stop stop-color="white" />
                <stop offset="1" stop-color="#F4F4F4" />
            </linearGradient>
        </defs>
    </symbol>

    <symbol viewBox="0 0 24 24" fill="none" id="wrench">
        <path d="M20.9815 7.37503C20.9677 7.2148 20.6101 6.90708 20.4587 6.85219C20.307 6.79697 20.1371 6.83456 20.023 6.94809L17.7334 9.23769L14.7595 6.26374L17.0949 3.93712C17.2092 3.82337 17.2464 3.65413 17.1914 3.50324C17.1358 3.35205 16.7691 3.03175 16.6079 3.01787C15.1896 2.89613 13.7999 3.40061 12.7951 4.40174C11.419 5.77278 11.0546 7.77488 11.6999 9.48143C11.6294 9.54063 11.5598 9.60336 11.4911 9.671L3.69554 16.9993C3.69279 17.002 3.69008 17.0049 3.6871 17.0075C2.77031 17.9209 2.77031 19.407 3.6871 20.3206C4.60404 21.2339 6.08488 21.2228 7.00152 20.3094C7.00547 20.3057 7.00909 20.302 7.0127 20.2979L14.3045 12.4712C14.371 12.4047 14.4327 12.3351 14.4909 12.2637C16.2044 12.9077 18.2153 12.5455 19.5926 11.1736C20.5972 10.1724 21.1039 8.78782 20.9815 7.37503Z" stroke="black" stroke-width="2" stroke-linejoin="round" />
    </symbol>

    <symbol viewBox="0 0 24 24" fill="none" id='image'>
        <path d="M3.41789 18.6054C3.02737 18.9959 3.02737 19.6291 3.41789 20.0196C3.80842 20.4101 4.44158 20.4101 4.83211 20.0196L3.41789 18.6054ZM8.625 14.8125L9.33211 14.1054C8.94158 13.7149 8.30842 13.7149 7.91789 14.1054L8.625 14.8125ZM10.875 17.0625L10.1679 17.7696C10.5584 18.1601 11.1916 18.1601 11.5821 17.7696L10.875 17.0625ZM15.9375 12L16.6446 11.2929C16.2541 10.9024 15.6209 10.9024 15.2304 11.2929L15.9375 12ZM19.7304 17.2071C20.1209 17.5976 20.7541 17.5976 21.1446 17.2071C21.5351 16.8166 21.5351 16.1834 21.1446 15.7929L19.7304 17.2071ZM4.83211 20.0196L9.33211 15.5196L7.91789 14.1054L3.41789 18.6054L4.83211 20.0196ZM7.91789 15.5196L10.1679 17.7696L11.5821 16.3554L9.33211 14.1054L7.91789 15.5196ZM11.5821 17.7696L16.6446 12.7071L15.2304 11.2929L10.1679 16.3554L11.5821 17.7696ZM15.2304 12.7071L19.7304 17.2071L21.1446 15.7929L16.6446 11.2929L15.2304 12.7071ZM6.375 4H17.625V2H6.375V4ZM20 6.375V17.625H22V6.375H20ZM17.625 20H6.375V22H17.625V20ZM4 17.625V6.375H2V17.625H4ZM6.375 20C5.06332 20 4 18.9367 4 17.625H2C2 20.0412 3.95875 22 6.375 22V20ZM20 17.625C20 18.9367 18.9367 20 17.625 20V22C20.0412 22 22 20.0412 22 17.625H20ZM17.625 4C18.9367 4 20 5.06332 20 6.375H22C22 3.95875 20.0412 2 17.625 2V4ZM6.375 2C3.95875 2 2 3.95875 2 6.375H4C4 5.06332 5.06332 4 6.375 4V2ZM8.75 8.0625C8.75 8.4422 8.4422 8.75 8.0625 8.75V10.75C9.54677 10.75 10.75 9.54677 10.75 8.0625H8.75ZM8.0625 8.75C7.6828 8.75 7.375 8.4422 7.375 8.0625H5.375C5.375 9.54677 6.57823 10.75 8.0625 10.75V8.75ZM7.375 8.0625C7.375 7.6828 7.6828 7.375 8.0625 7.375V5.375C6.57823 5.375 5.375 6.57823 5.375 8.0625H7.375ZM8.0625 7.375C8.4422 7.375 8.75 7.6828 8.75 8.0625H10.75C10.75 6.57823 9.54677 5.375 8.0625 5.375V7.375Z" fill="black" />
    </symbol>

    <symbol viewBox="0 0 24 24" fill="none" id='imageBlue'>
        <path d="M3.41789 18.6054C3.02737 18.9959 3.02737 19.6291 3.41789 20.0196C3.80842 20.4101 4.44158 20.4101 4.83211 20.0196L3.41789 18.6054ZM8.625 14.8125L9.33211 14.1054C8.94158 13.7149 8.30842 13.7149 7.91789 14.1054L8.625 14.8125ZM10.875 17.0625L10.1679 17.7696C10.5584 18.1601 11.1916 18.1601 11.5821 17.7696L10.875 17.0625ZM15.9375 12L16.6446 11.2929C16.2541 10.9024 15.6209 10.9024 15.2304 11.2929L15.9375 12ZM19.7304 17.2071C20.1209 17.5976 20.7541 17.5976 21.1446 17.2071C21.5351 16.8166 21.5351 16.1834 21.1446 15.7929L19.7304 17.2071ZM4.83211 20.0196L9.33211 15.5196L7.91789 14.1054L3.41789 18.6054L4.83211 20.0196ZM7.91789 15.5196L10.1679 17.7696L11.5821 16.3554L9.33211 14.1054L7.91789 15.5196ZM11.5821 17.7696L16.6446 12.7071L15.2304 11.2929L10.1679 16.3554L11.5821 17.7696ZM15.2304 12.7071L19.7304 17.2071L21.1446 15.7929L16.6446 11.2929L15.2304 12.7071ZM6.375 4H17.625V2H6.375V4ZM20 6.375V17.625H22V6.375H20ZM17.625 20H6.375V22H17.625V20ZM4 17.625V6.375H2V17.625H4ZM6.375 20C5.06332 20 4 18.9367 4 17.625H2C2 20.0412 3.95875 22 6.375 22V20ZM20 17.625C20 18.9367 18.9367 20 17.625 20V22C20.0412 22 22 20.0412 22 17.625H20ZM17.625 4C18.9367 4 20 5.06332 20 6.375H22C22 3.95875 20.0412 2 17.625 2V4ZM6.375 2C3.95875 2 2 3.95875 2 6.375H4C4 5.06332 5.06332 4 6.375 4V2ZM8.75 8.0625C8.75 8.4422 8.4422 8.75 8.0625 8.75V10.75C9.54677 10.75 10.75 9.54677 10.75 8.0625H8.75ZM8.0625 8.75C7.6828 8.75 7.375 8.4422 7.375 8.0625H5.375C5.375 9.54677 6.57823 10.75 8.0625 10.75V8.75ZM7.375 8.0625C7.375 7.6828 7.6828 7.375 8.0625 7.375V5.375C6.57823 5.375 5.375 6.57823 5.375 8.0625H7.375ZM8.0625 7.375C8.4422 7.375 8.75 7.6828 8.75 8.0625H10.75C10.75 6.57823 9.54677 5.375 8.0625 5.375V7.375Z" fill="#3F4DFA" />
    </symbol>

    <symbol viewBox="0 0 24 24" fill="none" id='exchange'>
        <path d="M10.2 7.80019C10.7457 5.39541 12.8963 3.6002 15.4662 3.6002C18.4486 3.6002 20.8662 6.01786 20.8662 9.00019C20.8662 11.7627 18.7919 14.0407 16.1158 14.3615M6.60005 6.0002L9.00005 3.6002L6.60005 1.2002M1.80005 8.40019V6.8002C1.80005 5.03288 3.23274 3.6002 5.00005 3.6002H7.40005M17.4 18.0002L15 20.4002L17.4 22.8002M22.2 15.6002V17.2002C22.2 18.9675 20.7674 20.4002 19 20.4002H16.6M12.6 16.2002C12.6 19.1825 10.1824 21.6002 7.20005 21.6002C4.21771 21.6002 1.80005 19.1825 1.80005 16.2002C1.80005 13.2179 4.21771 10.8002 7.20005 10.8002C10.1824 10.8002 12.6 13.2179 12.6 16.2002Z" stroke="black" stroke-width="2" stroke-linecap="round" stroke-linejoin="round" />
    </symbol>

    <symbol viewBox="0 0 24 24" fill="none" id='people'>
        <path d="M2.3999 18.2168C3.49855 16.3843 5.90641 15.1301 9.66302 15.1301C13.4196 15.1301 15.8275 16.3843 16.9261 18.2168M17.6211 13.7406C19.6105 14.7352 20.6052 15.7299 21.5999 17.7193M15.5521 6.1376C16.4882 6.64115 17.1245 7.62991 17.1245 8.7673C17.1245 9.87183 16.5244 10.8362 15.6325 11.3522M12.6471 8.76727C12.6471 10.4153 11.3111 11.7513 9.66302 11.7513C8.01496 11.7513 6.67895 10.4153 6.67895 8.76727C6.67895 7.11922 8.01496 5.7832 9.66302 5.7832C11.3111 5.7832 12.6471 7.11922 12.6471 8.76727Z" stroke="black" stroke-width="2" stroke-linecap="round" />
    </symbol>

    <symbol viewBox="0 0 24 24" fill="none" id='arrow-right'>
        <path d="M13.3333 5L20 12M20 12L13.3333 19M20 12L4 12" stroke="black" stroke-width="2" stroke-linecap="round" stroke-linejoin="round" />
    </symbol>
</svg>